<svg xmlns="http://www.w3.org/2000/svg" viewBox="0 0 110 70">
  <path d="M99.25.34H8.49a13.8 13.8 0 0 0-2 .18 6.54 6.54 0 0 0-1.93.64 6.49 6.49 0 0 0-1.68 1.2A6.71 6.71 0 0 0 1.68 4a6.93 6.93 0 0 0-.63 1.93A13.92 13.92 0 0 0 .87 8v53.89a13.8 13.8 0 0 0 .18 2 6.93 6.93 0 0 0 .63 1.93 6.61 6.61 0 0 0 4.78 3.48 13.8 13.8 0 0 0 2 .18h92.8a14.05 14.05 0 0 0 2-.18 6.64 6.64 0 0 0 1.93-.64 6.44 6.44 0 0 0 1.64-1.19 6.53 6.53 0 0 0 1.2-1.65 6.93 6.93 0 0 0 .63-1.93 13.8 13.8 0 0 0 .18-2V8.02a13.92 13.92 0 0 0-.18-2A6.93 6.93 0 0 0 108.1 4a6.71 6.71 0 0 0-1.2-1.65 6.44 6.44 0 0 0-1.64-1.19 6.64 6.64 0 0 0-1.93-.64 14.05 14.05 0 0 0-2-.18h-2Z"/>
  <path d="M99.25 2.64h1.98a11.21 11.21 0 0 1 1.69.14 4.55 4.55 0 0 1 1.29.42 4.23 4.23 0 0 1 1.06.77 4.35 4.35 0 0 1 1.19 2.36 11.15 11.15 0 0 1 .15 1.67v53.77a11.27 11.27 0 0 1-.15 1.69 4.44 4.44 0 0 1-.42 1.29 4.19 4.19 0 0 1-1.83 1.83 4.55 4.55 0 0 1-1.29.42 11.52 11.52 0 0 1-1.68.14H8.55A11.52 11.52 0 0 1 6.87 67a4.72 4.72 0 0 1-1.3-.42 4.19 4.19 0 0 1-1.83-1.83 4.72 4.72 0 0 1-.42-1.3 12.61 12.61 0 0 1-.15-1.68V8a12.61 12.61 0 0 1 .15-1.69 4.72 4.72 0 0 1 .42-1.3A4.42 4.42 0 0 1 4.51 4a4.23 4.23 0 0 1 1.06-.77 4.61 4.61 0 0 1 1.3-.42 11 11 0 0 1 1.68-.14h90.7" style="fill:#fff"/>
  <path d="M30.36 23.61a6.09 6.09 0 0 0 1.39-4.3 6 6 0 0 0-4 2.05 5.63 5.63 0 0 0-1.42 4.13 5 5 0 0 0 4-1.88m1.4 2.18c-2.21-.13-4.09 1.21-5.14 1.21s-2.67-1.18-4.42-1.15a6.53 6.53 0 0 0-5.54 3.36c-2.37 4.09-.62 10.16 1.69 13.49 1.12 1.65 2.47 3.46 4.25 3.4s2.34-1.09 4.38-1.09 2.64 1.09 4.42 1.05 3-1.65 4.12-3.3A14.48 14.48 0 0 0 37.33 39a6 6 0 0 1-3.59-5.44 6.1 6.1 0 0 1 2.9-5.11 6.33 6.33 0 0 0-4.91-2.67M51 21.19a7.76 7.76 0 0 1 8.14 8.13 7.85 7.85 0 0 1-8.26 8.16h-5.36v8.45h-3.84V21.19Zm-5.48 13.07h4.41c3.34 0 5.24-1.8 5.24-4.92s-1.9-4.91-5.23-4.91h-4.42ZM60.1 40.8c0-3.15 2.42-5.09 6.7-5.33l4.94-.29v-1.39c0-2-1.35-3.2-3.62-3.2s-3.48 1-3.8 2.64h-3.5c.21-3.26 3-5.66 7.44-5.66s7.17 2.31 7.17 5.93v12.43h-3.55V43h-.09a6.43 6.43 0 0 1-5.69 3.28c-3.53-.04-6-2.28-6-5.48Zm11.64-1.62v-1.43L67.3 38c-2.21.15-3.46 1.13-3.46 2.67s1.3 2.61 3.29 2.61a4.32 4.32 0 0 0 4.61-4.1Zm7.04 13.38v-3a6.68 6.68 0 0 0 1.2.07c1.71 0 2.64-.72 3.2-2.57 0 0 .33-1.1.33-1.11L77 27.9h4l4.57 14.67h.06l4.56-14.67h3.91l-6.75 19c-1.54 4.37-3.33 5.78-7.06 5.78a12.26 12.26 0 0 1-1.51-.12Z"/>
</svg>