<svg xmlns="http://www.w3.org/2000/svg" fill="none" viewBox="0 0 45 28">
  <path fill="#1E3764" d="M0 27.8596v-6.4839h2.0056c1.4579 0 2.3955.5465 2.3955 1.6766 0 .6391-.297 1.0837-.715 1.3431.6037.2778.9566.815.9566 1.5468 0 1.306-.9565 1.9174-2.4418 1.9174H0Zm1.2906-3.7885h.9565c.5848 0 .8355-.2871.8355-.815 0-.5651-.4546-.7503-1.0679-.7503h-.7241v1.5653Zm0 2.6584h.799c.7794 0 1.2345-.1945 1.2345-.8058 0-.6021-.39-.8521-1.1233-.8521h-.9102v1.6579Zm5.855 1.2412c-1.2723 0-1.913-.6206-1.913-1.4542 0-.9171.7527-1.4543 1.8668-1.4635.277.005.5528.0298.8263.0741v-.2224c0-.5649-.325-.8336-.9474-.8336a3.2665 3.2665 0 0 0-1.2255.2224l-.2318-1.0004c.3991-.1667 1.0399-.2779 1.6064-.2779 1.3648 0 2.0426.7225 2.0426 1.973v2.5749c-.3809.1945-1.0958.4076-2.0244.4076Zm.7801-1.0467v-.9911a3.1303 3.1303 0 0 0-.6596-.0741c-.4271 0-.7612.1668-.7612.6021 0 .389.2787.5928.771.5928a1.456 1.456 0 0 0 .6498-.1297Zm2.1466.9355v-4.4368a5.681 5.681 0 0 1 2.0981-.4075c1.3556 0 2.1357.6669 2.1357 1.8988v2.9456h-1.2814v-2.8529c0-.6391-.297-.9356-.8635-.9356a1.9532 1.9532 0 0 0-.8172.1668v3.6217l-1.2717-.0001Zm8.712-4.5664-.2415 1.0096a2.8351 2.8351 0 0 0-1.0491-.2316c-.752 0-1.1609.528-1.1609 1.3987 0 .9541.4271 1.445 1.2255 1.445a2.6334 2.6334 0 0 0 1.0307-.2409l.2045 1.0282a3.1325 3.1325 0 0 1-1.3374.2686c-1.5413 0-2.4327-.9541-2.4327-2.4639 0-1.5005.8822-2.4916 2.3584-2.4916a3.588 3.588 0 0 1 1.4025.2779Zm2.768 4.6776c-1.43 0-2.3214-.9911-2.3214-2.4824 0-1.482.8914-2.4731 2.3214-2.4731 1.4396 0 2.3122.9911 2.3122 2.4731 0 1.4913-.8726 2.4824-2.3122 2.4824Zm0-1.0559c.6595 0 1.0027-.5465 1.0027-1.4265 0-.8707-.3432-1.4172-1.0027-1.4172-.6499 0-1.012.5465-1.012 1.4172 0 .88.3621 1.4265 1.012 1.4265Zm3.0534.9448v-4.4369a5.6856 5.6856 0 0 1 2.0986-.4075c1.3557 0 2.1358.6669 2.1358 1.8988v2.9456h-1.2815v-2.8529c0-.6391-.2969-.9356-.8634-.9356a1.951 1.951 0 0 0-.8172.1668v3.6217h-1.2723Zm7.1245.1111c-1.105 0-1.6715-.6021-1.6715-1.8248v-2.0007h-.6316v-1.0188h.6316v-1.0282l1.2815-.0648v1.093h1.0301v1.0188h-1.0301v1.9822c0 .5373.2227.7874.6407.7874a2.2547 2.2547 0 0 0 .4917-.0556l.0651 1.0282a3.554 3.554 0 0 1-.8075.0833Zm3.2339 0c-1.2718 0-1.9125-.6206-1.9125-1.4542 0-.9171.7521-1.4543 1.8662-1.4635.277.005.5528.0298.8263.0741v-.2224c0-.5649-.3249-.8336-.9468-.8336a3.2672 3.2672 0 0 0-1.226.2224l-.2319-1.0004c.3992-.1667 1.0399-.2779 1.6064-.2779 1.3648 0 2.0427.7225 2.0427 1.973v2.5749c-.3809.1945-1.0959.4076-2.0244.4076Zm.78-1.0467v-.9911a3.1285 3.1285 0 0 0-.659-.0741c-.4271 0-.7618.1668-.7618.6021 0 .389.2787.5928.771.5928.2238.0073.446-.0371.6498-.1297Zm5.6284-3.6309-.2416 1.0096a2.8324 2.8324 0 0 0-1.049-.2316c-.7521 0-1.161.528-1.161 1.3987 0 .9541.4272 1.445 1.2261 1.445a2.636 2.636 0 0 0 1.0307-.2409l.2039 1.0282a3.1298 3.1298 0 0 1-1.3368.2686c-1.5413 0-2.4327-.9541-2.4327-2.4639 0-1.5005.8817-2.4916 2.3584-2.4916a3.5837 3.5837 0 0 1 1.402.2779Zm2.817 4.6776c-1.1044 0-1.6709-.6021-1.6709-1.8248v-2.0007h-.6316v-1.0188h.6316v-1.0282l1.2809-.0648v1.093h1.0307v1.0188H43.8v1.9822c0 .5373.2227.7874.6402.7874a2.2585 2.2585 0 0 0 .4922-.0556l.0651 1.0282a3.5543 3.5543 0 0 1-.808.0833Z"/>
  <path fill="url(#a)" d="M8.9382 18.1339c6.7801 0 10.1705-4.5091 13.5609-9.0184H0v9.0184h8.9382Z"/>
  <path fill="url(#b)" d="M36.0609.0972c-6.7802 0-10.1705 4.5092-13.5609 9.0183h22.499V.0972h-8.9381Z"/>
  <defs>
    <linearGradient id="a" x1="4.5507" x2="21" y1="14.0411" y2="7.9164" gradientUnits="userSpaceOnUse">
      <stop stop-color="#005AB9"/>
      <stop offset="1" stop-color="#1E3764"/>
    </linearGradient>
    <linearGradient id="b" x1="23.8625" x2="41.3294" y1="9.8977" y2="3.9237" gradientUnits="userSpaceOnUse">
      <stop stop-color="#FBA900"/>
      <stop offset="1" stop-color="#FFD800"/>
    </linearGradient>
  </defs>
</svg>