<svg xmlns="http://www.w3.org/2000/svg" xml:space="preserve" style="enable-background:new 0 0 566.9 566.9" viewBox="0 0 566.9 566.9">
  <path d="M490.6 566.9H76.3C33.8 566.9 0 533.1 0 490.6V76.3C0 33.8 33.8 0 76.3 0h414.3c42.5 0 76.3 33.8 76.3 76.3v413.2c1.1 42.5-34.9 77.4-76.3 77.4z" style="fill:#0a55a2"/>
  <path d="M170.2 263.2h-27.8c0-4.6-.5-7.7-1.6-9.2-1.6-2.3-6.2-3.5-13.8-3.5-7.3 0-12.2.7-14.5 2-2.3 1.4-3.5 4.2-3.5 8.8 0 4.1 1.1 6.8 3.1 8 1.5.9 3.5 1.5 5.9 1.6l5.7.4c12 .8 19.6 1.4 22.6 1.6 9.6.9 16.5 3.5 20.7 7.6 3.4 3.2 5.4 7.4 6.1 12.6.4 3.1.5 6.6.5 10.5 0 8.9-.8 15.5-2.6 19.7-3.1 7.7-10.1 12.4-21 14.5-4.6.8-11.5 1.4-20.8 1.4-15.7 0-26.5-.9-32.7-2.8-7.6-2.3-12.6-6.9-14.9-13.9-1.4-3.9-2-10.4-2-19.5h27.8v2.3c0 4.9 1.4 8 4.2 9.3 1.9.9 4.2 1.5 7 1.5h10.3c5.3 0 8.5-.3 10-.8 2.6-.9 4.2-2.6 5-4.9.4-1.4.7-3.1.7-5.4 0-4.9-1.8-7.8-5.4-8.9-1.4-.4-7.6-.9-18.7-1.8-8.9-.7-15.1-1.2-18.5-1.9-9.2-1.8-15.3-5.3-18.3-10.5-2.7-4.6-4.1-11.4-4.1-20.5 0-7 .7-12.6 2.2-16.8 1.5-4.2 3.8-7.4 7-9.6 4.7-3.4 10.7-5.3 18-5.9 6.1-.5 12.8-.8 20.3-.8 11.8 0 20 .7 25 2 12.2 3.2 18.3 12.4 18.3 27.4 0 1.2-.1 3-.2 5.5zm122.7 75.9V227.7h55.9c7.7 0 13.5.7 17.6 1.9 9.2 2.8 15.4 8.8 18.5 17.7 1.6 4.7 2.4 11.8 2.4 21.1 0 11.4-.9 19.5-2.7 24.3-3.7 9.7-11 15.4-22 16.9-1.4.3-6.9.4-16.8.5l-5 .1h-18V339h-29.9zm29.9-54.6h18.7c5.9-.3 9.6-.7 10.8-1.4 1.8-.9 3-3 3.5-5.8.4-1.9.5-4.9.5-8.7 0-4.7-.4-8.2-1.1-10.5-1.1-3.2-3.7-5.1-7.7-5.8-.8-.1-2.7-.1-5.8-.1h-18.9v32.3zm128.4 35.4H411l-5.4 19.2h-31.1L408 227.7h45.3l33.9 111.4h-30.4l-5.6-19.2zm-5.9-21.8-14.1-48.3-13.7 48.3h27.8z" style="fill:#fff"/>
  <path d="M251.4 243.4c12.3 0 23.4 5.7 30.7 14.6l6.5-13.9c-10.1-9.5-23.9-15.4-39.1-15.4-23.7 0-43.8 14.3-52.2 34.5h-12.6l-7.4 16h16.2c-.1 1.5-.1 3-.1 4.5 0 1.9.1 3.7.3 5.4h-8.1l-7.4 16h19.7c8.5 19.7 28.5 33.5 51.8 33.5 11.8 0 22.6-3.5 31.6-9.5v-19.6c-7.3 8.2-17.8 13.5-29.7 13.5-13.8 0-26-7.2-33.1-18h41.4l7.4-16h-54.9c-.3-1.9-.4-3.9-.4-5.9 0-1.4.1-2.7.1-4.1h59.8l7.4-16h-61.9c6.7-11.7 19.4-19.6 34-19.6z" style="fill:#fdc300"/>
  <path d="M251.4 243.8c11.8 0 22.8 5.3 30.3 14.5l.5.5.3-.7 6.5-13.9.1-.3-.3-.3c-10.7-10-24.6-15.5-39.3-15.5-11.5 0-22.6 3.4-32 9.7-9.2 6.2-16.4 14.9-20.5 25l.4-.3h-12.9l-.1.3-7.4 16-.3.7h17l-.5-.5c-.1 1.6-.1 3.1-.1 4.5 0 1.8.1 3.7.3 5.4l.5-.5h-8.4l-.1.3-7.4 16-.5.9H198l-.4-.3c8.9 20.5 29.3 33.8 52.2 33.8 11.5 0 22.4-3.4 31.9-9.6l.3-.1v-21.1l-.8.9c-7.4 8.5-18.1 13.2-29.3 13.2-13.2 0-25.4-6.6-32.7-17.7l-.4.7h41.7l.1-.3 7.4-16 .3-.7h-55.7l.5.4c-.3-1.9-.4-3.9-.4-5.8 0-1.4 0-2.7.1-3.9l-.5.4h60.1l.1-.3 7.4-16 .3-.7h-62.7l.4.7c6.8-11.9 19.7-19.4 33.5-19.4zm-34.2 19.8h61.9l-.4-.7-7.3 16 .4-.3h-60.2v.4c-.1 1.4-.1 2.7-.1 4.1 0 2 .1 3.9.4 5.9v.4h55.3l-.4-.7-7.6 16 .4-.3h-42.3l.5.7c7.4 11.4 20 18.1 33.5 18.1 11.5 0 22.4-5 30-13.7l-.8-.3v19.6l.3-.4c-9.2 6.2-20.1 9.5-31.4 9.5-22.4 0-42.6-13-51.4-33.3l-.1-.3H178l.4.7 7.6-16-.4.3h8.6v-.5c-.1-1.8-.3-3.7-.3-5.4 0-1.4 0-2.8.1-4.5v-.5h-16.7l.4.7 7.4-16-.4.3h12.9l.1-.3c4.1-10 11.1-18.5 20.1-24.6 9.3-6.2 20.3-9.6 31.5-9.6 14.5 0 28.3 5.4 38.7 15.3l-.1-.5-6.5 13.9.8-.1c-7.7-9.5-18.9-14.7-31.1-14.7-14.2 0-27.4 7.7-34.6 20l-.4.7h1.1v.1z" style="fill:#004899"/>
</svg>