<svg xmlns="http://www.w3.org/2000/svg" xml:space="preserve" viewBox="0 0 141.73 141.73">
  <path fill="#CE0F4B" d="M0 115.36c0 14.554 11.797 26.37 26.358 26.37h115.34l.013-26.37V26.358C141.711 11.804 129.913 0 115.348 0h-88.99C11.797 0 0 11.804 0 26.358v89.002"/>
  <path fill="#FFF" d="M32.536 51.077c0-4.893 3.514-10.071 10.077-10.071h56.472c6.551 0 10.078 5.179 10.078 10.071 0 4.893-3.527 10.09-10.078 10.09H42.613c-6.563 0-10.077-5.197-10.077-10.09m0 39.57c0-4.899 3.514-10.091 10.077-10.091h56.472c6.551 0 10.078 5.191 10.078 10.091 0 4.887-3.527 10.078-10.078 10.078H42.613c-6.563.001-10.077-5.191-10.077-10.078"/>
</svg>