<svg xmlns="http://www.w3.org/2000/svg" xml:space="preserve" viewBox="0 0 141.73 141.73">
  <path fill="#5D647F" d="M130.658 19.93H11.073C4.968 19.93 0 24.898 0 31.004v79.723c0 6.105 4.967 11.073 11.072 11.073h119.585c6.104 0 11.072-4.968 11.072-11.073V31.004c.001-6.106-4.966-11.074-11.071-11.074z"/>
  <path fill="#FFD100" d="M48.72 64.221H22.146c-2.446 0-4.429-1.982-4.429-4.429V42.076c0-2.446 1.983-4.429 4.429-4.429H48.72c2.446 0 4.429 1.982 4.429 4.429v17.717c0 2.446-1.983 4.428-4.429 4.428z"/>
  <path fill="#B8BAC0" d="M33.218 93.01H22.146c-2.446 0-4.429-1.983-4.429-4.43v-2.214c0-2.446 1.983-4.43 4.429-4.43h11.073c2.446 0 4.429 1.983 4.429 4.43v2.214c-.001 2.447-1.983 4.43-4.43 4.43zm28.789 0H50.935c-2.446 0-4.429-1.983-4.429-4.43v-2.214c0-2.446 1.983-4.43 4.429-4.43h11.073c2.446 0 4.429 1.983 4.429 4.43v2.214c-.001 2.447-1.984 4.43-4.43 4.43zm28.789 0H79.723c-2.445 0-4.428-1.983-4.428-4.43v-2.214c0-2.446 1.982-4.43 4.428-4.43h11.073c2.446 0 4.429 1.983 4.429 4.43v2.214c0 2.447-1.983 4.43-4.429 4.43zm28.789 0h-11.073c-2.445 0-4.429-1.983-4.429-4.43v-2.214c0-2.446 1.983-4.43 4.429-4.43h11.073c2.446 0 4.429 1.983 4.429 4.43v2.214c0 2.447-1.983 4.43-4.429 4.43z"/>
  <path fill="#8A8895" d="M64.222 106.298H19.931c-1.224 0-2.215-.991-2.215-2.215 0-1.223.991-2.215 2.215-2.215h44.291c1.224 0 2.214.992 2.214 2.215 0 1.223-.99 2.215-2.214 2.215zm28.789 0H73.08c-1.225 0-2.215-.991-2.215-2.215 0-1.223.99-2.215 2.215-2.215h19.931c1.224 0 2.214.992 2.214 2.215 0 1.223-.991 2.215-2.214 2.215z"/>
  <path fill="#FF9500" d="M53.149 53.149H31.003v-4.43h22.146v-4.428H31.003v-6.644h-4.428v26.574h4.428v-6.643h22.146z"/>
</svg>
