<svg xmlns="http://www.w3.org/2000/svg" viewBox="0 0 93 40">
  <g fill="none" fill-rule="evenodd">
    <path fill="#000268" d="M.075 7.171C.075 3.2189 3.2958.0145 7.2666.0145h78.3738c3.9725 0 7.1914 3.2044 7.1914 7.1567v25.5754c0 3.95-3.2189 7.155-7.1914 7.155H7.2665c-3.9708 0-7.1914-3.205-7.1914-7.155V7.1711Z"/>
    <path fill="#FFF" d="M3.0266 7.416v25.088c0 2.4693 2.013 4.472 4.4963 4.472h41.0608V2.944H7.5229c-2.4832 0-4.4963 2.0026-4.4963 4.472ZM59.193 19.8346c0 1.5973-.79 2.695-2.098 2.695-1.1555 0-2.1188-1.0977-2.1188-2.5605 0-1.5014.8472-2.6177 2.1188-2.6177 1.3484 0 2.098 1.155 2.098 2.4832Zm-7.6799 9.161h3.4631v-5.4473h.0387c.656 1.1937 1.9658 1.636 3.178 1.636 2.9826 0 4.58-2.463 4.58-5.4271 0-2.4243-1.52-5.0628-4.2925-5.0628-1.577 0-3.0399.6358-3.7346 2.0414h-.0387v-1.8087h-3.194v14.0686ZM67.503 21.778c0-.9615.9228-1.326 2.0986-1.326.5192 0 1.0204.0365 1.4628.0572 0 1.1735-.8276 2.3671-2.1373 2.3671-.8085 0-1.424-.4036-1.424-1.0983Zm6.9858 3.1761c-.153-.7882-.1917-1.5788-.1917-2.367v-3.734c0-3.0601-2.2123-4.1585-4.7729-4.1585-1.4812 0-2.7707.212-4.003.7132l.0588 2.3492c.9592-.54 2.0778-.752 3.194-.752 1.2491 0 2.2696.3668 2.2904 1.7337-.4424-.0774-1.0597-.1363-1.6176-.1363-1.8462 0-5.1765.3667-5.1765 3.4262 0 2.176 1.77 3.156 3.7525 3.156 1.424 0 2.3873-.5562 3.176-1.8093h.0388c0 .5215.0566 1.0389.0774 1.5788h3.1738Zm1.5586 4.0418a10.077 10.077 0 0 0 2.1551.2327c3.1762 0 3.9258-2.445 4.9075-4.9669l3.6774-9.3344h-3.4655l-2.0593 6.5435h-.0387l-2.1557-6.5435H75.336l4.0602 10.2572c-.2506.8859-.9043 1.3871-1.752 1.3871-.4828 0-.9044-.0589-1.367-.2119l-.2298 2.6362Z"/>
    <path fill="#FF0007" d="M11.4873 19.8549c0-1.367.6745-2.5034 1.964-2.5034 1.5586 0 2.2123 1.2508 2.2123 2.367 0 1.5402-.9817 2.5791-2.2123 2.5791-1.0389 0-1.964-.8841-1.964-2.4427Zm7.5257-4.9277h-3.1374v1.8087h-.0364c-.7334-1.2324-1.9277-2.0414-3.4083-2.0414-3.1173 0-4.5228 2.2348-4.5228 5.2175 0 2.9642 1.7133 5.042 4.4633 5.042 1.3877 0 2.5426-.54 3.3696-1.7134h.0387v.54c0 1.9623-1.0776 2.9053-3.078 2.9053-1.4443 0-2.3307-.3078-3.388-.827l-.1733 2.7338c.8067.2893 2.1736.6358 3.8304.6358 4.0418 0 6.0422-1.3288 6.0422-5.448v-8.8533Zm5.855-4.1763h-3.4648v2.5403h3.4649V10.751ZM21.405 24.954h3.463V14.9272h-3.463V24.954Zm13.1093-10.1434c-.3465-.0566-.7703-.1161-1.1734-.1161-1.5015 0-2.3671.809-2.9642 2.08h-.0387v-1.8473h-3.156V24.954h3.4638v-4.233c0-1.964.906-3.1374 2.5218-3.1374.4054 0 .7883 0 1.1735.1138l.1732-2.8868Zm5.9649 7.9496c-1.5973 0-2.251-1.3282-2.251-2.8095 0-1.5014.6537-2.8296 2.251-2.8296 1.599 0 2.2533 1.3282 2.2533 2.8296 0 1.4813-.6543 2.8095-2.2533 2.8095Zm0 2.4242c3.3106 0 5.8325-1.923 5.8325-5.2337 0-3.3309-2.5219-5.2562-5.8325-5.2562-3.3101 0-5.8303 1.9253-5.8303 5.2562 0 3.3107 2.5202 5.2337 5.8303 5.2337Z"/>
  </g>
</svg>