<svg xmlns="http://www.w3.org/2000/svg" fill="none" viewBox="0 0 34 31">
  <path fill="#fff" d="M.5117 2.2511v25.8656c0 1.238.9847 2.251 2.188 2.251h15.0211C29.0769 30.3677 34 23.8282 34 15.1502 34 6.517 29.0769 0 17.7208 0H2.6998C1.4963 0 .5118 1.013.5118 2.2511Z"/>
  <path fill="#C06" d="M10.5676 6.3482v19.1121h8.0849c7.341 0 10.5245-4.2659 10.5245-10.2989 0-5.7742-3.1835-10.254-10.5245-10.254h-6.6846c-.7767 0-1.4003.653-1.4003 1.4408Z"/>
  <path fill="#000" d="M17.7187 28.3081H4.656c-1.1597 0-2.1006-.968-2.1006-2.1611V4.2323c0-1.1932.9409-2.1611 2.1006-2.1611h13.0627c12.3954 0 14.2443 8.2053 14.2443 13.0903 0 8.4755-5.0654 13.1466-14.2443 13.1466ZM4.656 2.7915c-.7768 0-1.4004.6416-1.4004 1.4407V26.147c0 .7991.6236 1.4407 1.4004 1.4407h13.0627c8.7303 0 13.5441-4.4122 13.5441-12.4262 0-10.7604-8.4896-12.37-13.5441-12.37H4.656Z"/>
  <path fill="#fff" d="M13.4092 12.5838c.2845 0 .5471.045.7987.1351.2517.0901.4595.2363.6455.4165.175.1913.3172.4276.4266.6978.0985.2814.1532.6078.1532.9905 0 .3376-.0438.6416-.1203.923-.0876.2813-.2079.529-.3721.7315-.1641.2026-.3719.3602-.6236.484-.2516.1126-.5469.1801-.8861.1801h-1.9145v-4.5698h1.8926v.0113Zm-.0656 3.7256c.1422 0 .2735-.0225.4157-.0675a.8143.8143 0 0 0 .3501-.2364 1.3176 1.3176 0 0 0 .2516-.4276c.0657-.1801.0986-.3828.0986-.6416 0-.2252-.0219-.439-.0657-.6191-.0438-.1801-.1204-.3489-.2189-.4727-.0984-.1239-.2297-.2364-.3938-.304-.1641-.0675-.3611-.1013-.6017-.1013h-.7002v2.8815h.8643v-.0113Zm6.0431-3.7256v.8441h-2.3413v.9793h2.1553v.7766h-2.1553v1.1144h2.3959v.8441h-3.3695v-4.5698h3.3149v.0113Zm3.3453.0001 1.663 4.5698h-1.0176l-.339-1.013h-1.663l-.3501 1.013h-.9847l1.6739-4.5698h1.0175Zm.0547 2.8026-.558-1.677h-.0109l-.5798 1.677h1.1487Zm3.1928-2.8026v3.7256h2.1662v.8442h-3.1398v-4.5698h.9736Z"/>
  <path fill="#000" d="M6.9128 16.9735c1.1299 0 2.0458-.9423 2.0458-2.1048 0-1.1624-.916-2.1048-2.0458-2.1048-1.13 0-2.0459.9424-2.0459 2.1048 0 1.1625.916 2.1048 2.0459 2.1048Zm1.5382 8.4868c-1.7175 0-3.096-1.4295-3.096-3.1853v-2.4875c0-.8779.6892-1.5983 1.5535-1.5983.8533 0 1.5535.709 1.5535 1.5983v5.6728h-.011Z"/>
</svg>