<svg xmlns="http://www.w3.org/2000/svg" viewBox="0 0 77 60">
  <g fill="none">
    <path fill="#00ACEF" d="M38.8703 26.5671c7.3114 0 13.2398-5.927 13.2398-13.2396 0-7.3115-5.9284-13.24-13.2397-13.24-7.3115 0-13.2398 5.9285-13.2398 13.2398 0 7.3128 5.9283 13.2397 13.2397 13.2397"/>
    <path fill="#00ACEF" d="M48.6356 24.0386c-2.5231 2.7362-6.9694 5.471-12.678 5.471-4.4285 0-8.241-1.721-10.6665-3.6334C10.8368 27.391.0862 29.5422.0862 29.5422v5.8537l76.6847-.0082V23.318s-13.1393-.0802-28.1353.7206"/>
    <path fill="#0B325E" d="M9.1959 52.5106v7.1322H.0862v-18.974H9.196v8.5383h.0529l5.361-8.5383h10.9243l-7.9981 9.8059 7.5448 9.168h-10.422l-5.4005-7.1321H9.196Zm67.579 6.349c-2.1485.6556-4.9755 1.0424-7.5041 1.0424-9.0106 0-15.6298-2.5611-15.6298-10.0123 0-6.7332 6.4129-9.658 15.182-9.658 2.4362 0 5.532.2701 7.952 1.0424l-.0028 6.5214c-1.7942-1.0871-3.5884-1.763-6.1577-1.763-3.3442 0-6.6856 1.6449-6.6856 4.0365 0 2.3954 3.3264 4.0363 6.6856 4.0363 2.5272 0 4.3635-.7004 6.1577-1.7359l.0028 6.4902ZM36.1356 48.7103h4.5386c1.7535 0 2.4388-.7098 2.4388-1.7997 0-1.25-.692-1.873-2.3127-1.873h-4.6647v3.6727Zm0 7.0753h4.7502c1.7808 0 2.3874-.7397 2.3874-1.8283 0-1.0885-.6135-1.8702-2.367-1.8702h-4.7706v3.6985Zm-9.1098-15.1169h18.4149c4.7843 0 6.3519 1.8594 6.3519 4.7557 0 3.2425-2.8978 4.6499-5.8728 4.81v.0544c3.0565.2375 6.033.585 6.033 4.4109 0 2.4974-1.569 4.943-6.8297 4.943H27.0257v-18.974Z"/>
  </g>
</svg>