<svg width="92" height="24" viewBox="0 0 92 24" fill="none" xmlns="http://www.w3.org/2000/svg">
<g clip-path="url(#clip0_503_420)">
<path d="M34.4284 4.90839H29.4545C29.1142 4.90839 28.8247 5.15566 28.7716 5.49166L26.76 18.2459C26.72 18.4975 26.9149 18.7244 27.1702 18.7244H29.5447C29.8851 18.7244 30.1745 18.4771 30.2276 18.1404L30.7702 14.7004C30.8225 14.3637 31.1127 14.1164 31.4523 14.1164H33.0269C36.3033 14.1164 38.1942 12.5309 38.688 9.38912C38.9105 8.01457 38.6974 6.93457 38.0538 6.17821C37.3469 5.34766 36.0931 4.90839 34.4284 4.90839ZM35.0022 9.56657C34.7302 11.3513 33.3665 11.3513 32.048 11.3513H31.2974L31.824 8.01821C31.8553 7.81675 32.0298 7.66839 32.2334 7.66839H32.5774C33.4756 7.66839 34.3229 7.66839 34.7607 8.18039C35.0218 8.48584 35.1018 8.93966 35.0022 9.56657Z" fill="#253B80"/>
<path d="M49.296 9.5091H46.9142C46.7113 9.5091 46.536 9.65746 46.5047 9.85891L46.3993 10.5251L46.2327 10.2836C45.7171 9.53528 44.5673 9.2851 43.4197 9.2851C40.7877 9.2851 38.5396 11.2786 38.1018 14.0749C37.8742 15.4698 38.1978 16.8036 38.9891 17.7338C39.7149 18.5891 40.7535 18.9455 41.9891 18.9455C44.1098 18.9455 45.2858 17.5818 45.2858 17.5818L45.1797 18.2436C45.1397 18.4967 45.3346 18.7236 45.5884 18.7236H47.7338C48.0749 18.7236 48.3629 18.4764 48.4167 18.1396L49.704 9.98764C49.7447 9.73673 49.5506 9.5091 49.296 9.5091ZM45.976 14.1447C45.7462 15.5055 44.6662 16.4189 43.2887 16.4189C42.5971 16.4189 42.0444 16.1971 41.6895 15.7767C41.3375 15.3593 41.2037 14.7651 41.3157 14.1033C41.5302 12.7542 42.6284 11.8109 43.9847 11.8109C44.6611 11.8109 45.2109 12.0356 45.5731 12.4596C45.936 12.888 46.08 13.4858 45.976 14.1447Z" fill="#253B80"/>
<path d="M61.9811 9.50909H59.5877C59.3593 9.50909 59.1447 9.62255 59.0153 9.81237L55.7142 14.6749L54.3149 10.0022C54.2269 9.70982 53.9571 9.50909 53.6516 9.50909H51.2996C51.0138 9.50909 50.8153 9.78837 50.9062 10.0575L53.5425 17.7942L51.064 21.2931C50.8691 21.5687 51.0655 21.9477 51.4022 21.9477H53.7927C54.0196 21.9477 54.232 21.8371 54.3607 21.6509L62.3215 10.16C62.512 9.88509 62.3164 9.50909 61.9811 9.50909Z" fill="#253B80"/>
<path d="M69.9055 4.90839H64.931C64.5913 4.90839 64.3019 5.15566 64.2488 5.49166L62.2372 18.2459C62.1972 18.4975 62.3921 18.7244 62.6459 18.7244H65.1986C65.4357 18.7244 65.6386 18.5513 65.6757 18.3157L66.2466 14.7004C66.299 14.3637 66.5892 14.1164 66.9288 14.1164H68.5026C71.7797 14.1164 73.6699 12.5309 74.1645 9.38912C74.3877 8.01457 74.1732 6.93457 73.5295 6.17821C72.8234 5.34766 71.5703 4.90839 69.9055 4.90839ZM70.4794 9.56657C70.2081 11.3513 68.8444 11.3513 67.5252 11.3513H66.7753L67.3026 8.01821C67.3339 7.81675 67.507 7.66839 67.7113 7.66839H68.0553C68.9528 7.66839 69.8008 7.66839 70.2386 8.18039C70.4997 8.48584 70.579 8.93966 70.4794 9.56657Z" fill="#179BD7"/>
<path d="M84.7723 9.5091H82.392C82.1876 9.5091 82.0138 9.65746 81.9832 9.85891L81.8778 10.5251L81.7105 10.2836C81.1949 9.53528 80.0458 9.2851 78.8982 9.2851C76.2662 9.2851 74.0189 11.2786 73.5811 14.0749C73.3541 15.4698 73.6763 16.8036 74.4676 17.7338C75.1949 18.5891 76.232 18.9455 77.4676 18.9455C79.5883 18.9455 80.7643 17.5818 80.7643 17.5818L80.6582 18.2436C80.6182 18.4967 80.8131 18.7236 81.0683 18.7236H83.2131C83.5527 18.7236 83.8422 18.4764 83.8952 18.1396L85.1832 9.98764C85.2225 9.73673 85.0276 9.5091 84.7723 9.5091ZM81.4523 14.1447C81.224 15.5055 80.1425 16.4189 78.7651 16.4189C78.0749 16.4189 77.5207 16.1971 77.1658 15.7767C76.8138 15.3593 76.6814 14.7651 76.792 14.1033C77.008 12.7542 78.1047 11.8109 79.4611 11.8109C80.1374 11.8109 80.6872 12.0356 81.0494 12.4596C81.4138 12.888 81.5578 13.4858 81.4523 14.1447Z" fill="#179BD7"/>
<path d="M87.5804 5.2582L85.5389 18.2458C85.4989 18.4975 85.6938 18.7244 85.9476 18.7244H88C88.3411 18.7244 88.6305 18.4771 88.6829 18.1404L90.696 5.38693C90.736 5.13529 90.5411 4.90765 90.2873 4.90765H87.9891C87.7862 4.90838 87.6116 5.05674 87.5804 5.2582Z" fill="#179BD7"/>
<path d="M6.10471 21.203L6.48508 18.7869L5.6378 18.7673H1.59198L4.40362 0.93966C4.41235 0.885842 4.44071 0.83566 4.48217 0.800024C4.52362 0.764387 4.57671 0.744751 4.63198 0.744751H11.4538C13.7185 0.744751 15.2815 1.21602 16.0975 2.14621C16.48 2.58257 16.7236 3.03857 16.8415 3.54039C16.9651 4.06694 16.9673 4.69603 16.8465 5.4633L16.8378 5.5193V6.01094L17.2204 6.22766C17.5425 6.39857 17.7985 6.59421 17.9949 6.81821C18.3222 7.1913 18.5338 7.66548 18.6233 8.22767C18.7156 8.80585 18.6851 9.49385 18.5338 10.2728C18.3593 11.1688 18.0771 11.9491 17.696 12.5877C17.3455 13.176 16.8989 13.664 16.3687 14.0422C15.8625 14.4015 15.2611 14.6742 14.5811 14.8488C13.9222 15.0204 13.1709 15.1069 12.3469 15.1069H11.816C11.4364 15.1069 11.0676 15.2437 10.7782 15.4888C10.488 15.7389 10.296 16.0808 10.2371 16.4546L10.1971 16.672L9.52508 20.9302L9.49453 21.0866C9.48654 21.136 9.47272 21.1608 9.45235 21.1775C9.43417 21.1928 9.40799 21.203 9.38253 21.203H6.10471Z" fill="#253B80"/>
<path d="M17.5825 5.57599C17.5621 5.70617 17.5389 5.83926 17.5127 5.97599C16.6131 10.5949 13.5352 12.1905 9.60432 12.1905H7.60286C7.12214 12.1905 6.71705 12.5396 6.64214 13.0138L5.61741 19.5127L5.32723 21.3549C5.2785 21.6662 5.5185 21.9469 5.83268 21.9469H9.3825C9.80287 21.9469 10.16 21.6415 10.2261 21.2269L10.261 21.0465L10.9294 16.8051L10.9723 16.5724C11.0378 16.1564 11.3956 15.8509 11.816 15.8509H12.3469C15.7861 15.8509 18.4785 14.4545 19.2654 10.4138C19.5941 8.72581 19.424 7.31635 18.5541 6.32508C18.2909 6.02617 17.9643 5.77817 17.5825 5.57599Z" fill="#179BD7"/>
<path d="M16.6414 5.20072C16.504 5.16072 16.3622 5.12435 16.2167 5.09163C16.0705 5.05963 15.9207 5.03126 15.7665 5.00654C15.2269 4.91926 14.6356 4.87781 14.0022 4.87781H8.65524C8.52361 4.87781 8.39852 4.90763 8.28652 4.96144C8.03997 5.07999 7.8567 5.31344 7.81233 5.59926L6.67488 12.8036L6.64215 13.0138C6.71706 12.5396 7.12215 12.1905 7.60288 12.1905H9.60434C13.5353 12.1905 16.6131 10.5942 17.5127 5.97599C17.5396 5.83926 17.5622 5.70617 17.5825 5.57599C17.3549 5.45526 17.1083 5.35199 16.8429 5.26399C16.7774 5.24217 16.7098 5.22108 16.6414 5.20072Z" fill="#222D65"/>
<path d="M7.81231 5.59928C7.85667 5.31346 8.03995 5.08001 8.28649 4.96219C8.39922 4.90837 8.52358 4.87855 8.65522 4.87855H14.0021C14.6356 4.87855 15.2269 4.92001 15.7665 5.00728C15.9207 5.03201 16.0705 5.06037 16.2167 5.09237C16.3621 5.1251 16.504 5.16146 16.6414 5.20146C16.7098 5.22182 16.7774 5.24291 16.8436 5.26401C17.109 5.35201 17.3556 5.45601 17.5832 5.57601C17.8509 3.86909 17.581 2.70691 16.6581 1.65455C15.6407 0.496001 13.8043 0 11.4545 0H4.63267C4.15267 0 3.74322 0.349091 3.66903 0.824001L0.827577 18.8349C0.771577 19.1913 1.04649 19.5127 1.40576 19.5127H5.6174L6.67486 12.8036L7.81231 5.59928Z" fill="#253B80"/>
</g>
<defs>
<clipPath id="clip0_503_420">
<rect width="90.1819" height="24" fill="white" transform="translate(0.820312)"/>
</clipPath>
</defs>
</svg>
