<svg xmlns="http://www.w3.org/2000/svg" viewBox="0 0 436 264">
  <g fill="#fa82a0">
    <path d="M49.76 0h336.32c12.87.7 25.63 5.95 34.64 15.29 9.16 8.81 14.32 21.22 15.28 33.8v165.49c-.83 12.7-6.06 25.25-15.28 34.14-8.89 9.21-21.42 14.43-34.1 15.28H49.92c-12.88-.67-25.63-5.96-34.64-15.29C6 239.75.75 227.11 0 214.31V49.45c.83-12.72 6.07-25.29 15.3-34.19C24.27 5.98 36.96.76 49.76 0m12.26 79.04c-2.63 2.56-3.5 6.44-2.96 9.99 1.31 10.64 2.62 21.28 3.97 31.91-3.49-2.62-8.35-3.75-12.17-1.11-5.01 2.73-5.15 9.35-3.26 14.09-5.11 1.08-9.48 5.73-8.53 11.2.37 5.18 4.84 8.3 7.86 11.98.97 6.94 2.68 14.15 7.65 19.41 11.62 13.01 32.42 14.82 47.13 6.22 8.9-5.48 13.25-15.91 14.81-25.84.54-5.4 1.24-11.26-1.12-16.34-1.91-3.87-6.5-4.61-10.07-6.19 3.07-15.16 6.17-30.31 9.24-45.47.86-3.47 0-7.33-2.55-9.88-3.98-4.4-11.66-3.84-15.4.56-2.01 2.49-2.56 5.75-3.51 8.72-2.45 8.1-4.63 16.28-7.24 24.33-2.1-7.8-3.78-15.71-5.65-23.57-.84-3.33-1.29-7.02-3.74-9.63-3.6-4.08-10.66-4.28-14.46-.38m79.25 27.29c-4.43 6.27-4.58 15.71.94 21.38 5.24 5.59 13.28 6.28 20 9.11 3.37 1.33 4.46 5.59 3.22 8.76-1.37 3.73-5.69 5.23-9.37 4.81-4.6-.21-8.1-3.49-11.19-6.55-2.8 2.92-6.18 5.38-8.21 8.94 5.56 5.73 13.25 9.68 21.38 9.21 7.41-.01 15.02-3.62 18.68-10.25 3.67-6.61 3.36-15.82-2.12-21.37-4.5-4.52-10.88-6.12-16.78-7.95-2.72-.91-6.19-2.27-6.53-5.56-.65-3.88 2.81-7.52 6.7-7.23 3.78-.36 6.36 2.68 8.76 5.08 3.29-2.17 6.79-4.02 9.85-6.52-6.55-12.95-27.35-13.68-35.33-1.86m104.26-3.7c-5.54 3.83-8.51 10.63-8.39 17.28-.03 13.62-.26 27.25.08 40.87 4.01.26 8.03.19 12.05.12.83-6.6-.12-13.27.53-19.87.8-5.4 6.33-7.85 11.18-8.41.21-3.72.19-7.44.06-11.15-4.12-.27-8.01 1.25-11.38 3.5-.16-3.97-.5-8.67 2.58-11.71 2.29-2.55 5.86-2.91 9.04-3.42.15-3.68.14-7.37-.02-11.05-5.43-.08-11.18.61-15.73 3.84m104.5 1.54c-.48 11.6-.14 23.22-.14 34.83-.08 4.7.65 9.66 3.58 13.5 4.59 6.31 12.77 9.12 20.37 8.4.22-3.62.23-7.25.04-10.88-3.51-.5-7.49-1.12-9.63-4.3-3.4-4.84-1.77-11.12-2.07-16.63 3.44 2.12 7.27 3.99 11.44 3.57.1-3.69.11-7.38.03-11.07-3.39-.97-7.24-1.77-9.44-4.82-2.89-3.54-1.9-8.38-2.25-12.59-3.98-.19-7.96-.18-11.93-.01m-148.63 13.5c-12.25 2.43-20.71 16.35-16.61 28.3 3.68 13.1 20.04 19.62 32.14 14.12 7.29-3.09 12.98-10.1 13.94-18.04 1.04-9.82-5.27-19.69-14.33-23.37-4.79-1.91-10.14-2.06-15.14-1.01m83.79-.45c-9.8 1.06-18.52 8.9-20.04 18.73-1.68 8.49 2.58 17.47 9.81 22.05 8.15 5.52 19.67 5.31 27.59-.53 6.44-4.53 10.19-12.63 9.15-20.47-1.26-12.55-14.26-21.73-26.51-19.78m45.6 4.85c-.08-.96-.24-2.86-.32-3.81-3.87-.28-7.76-.19-11.64-.17-.72 4.26-.22 8.58-.33 12.87.16 9.97-.34 19.97.22 29.92 3.99.09 7.99.17 11.98-.11.68-7.54-.56-15.18.61-22.67 1.01-5.24 6.42-7.41 11.17-7.87-.24-4.24 1.23-9.14-.77-12.97-4.2-.23-8.04 1.91-10.92 4.81m54.54 24.32c-5.39 2.14-6.28 10.48-1.36 13.62 4.8 3.69 12.84.19 13.03-5.95.54-5.92-6.47-10.33-11.67-7.67Z"/>
    <path d="M63.53 88.81c-.63-3.08.52-6.78 3.61-8.05 3.18-1.28 6.82 1.11 7.47 4.35 3.11 12.17 5.72 24.46 8.86 36.62.29 1.69 2.08 2.2 3.51 1.58 1.42-2.05 1.79-4.6 2.54-6.94 3.09-10.56 6.12-21.15 9.36-31.67 1.14-4.36 7.67-5.77 10.35-2.05 2.13 2.39 1.17 5.72.61 8.49-3.02 14-5.53 28.12-8.79 42.04l-.69.36c-6.82-1.11-13.39-3.63-20.3-4.16-3.31-.3-6.16 1.6-8.6 3.6-1.63-2-3.04-4.26-3.28-6.89-1.65-12.41-3.07-24.86-4.65-37.28Zm-12.49 38.14c.45-3.57 5.37-5.58 8.1-3.1 2.92 2.53 4.66 6.08 6.95 9.14 1.35 2.18 3.51 4.16 3.44 6.92-.06 2.65.93 5.09 2.3 7.3-2.06 2.34-5.82 3.75-8.42 1.4-3.11-3.32-5.25-7.41-7.95-11.05-2.07-3.2-5.11-6.48-4.42-10.61Zm153.37 1.64c7.44-2.34 15.31 4.72 13.95 12.36-.36 7-8.21 11.54-14.61 9.24-6.55-1.78-9.64-10.08-6.45-15.92 1.38-2.82 4.08-4.9 7.11-5.68Zm81.04-.03c7.86-2.39 15.98 5.48 13.83 13.42-1.24 8.56-13.17 11.62-18.95 5.62-5.92-5.68-3.11-17.3 5.12-19.04Z"/>
    <path d="M75.18 136.24c2.02-3.21 6.32-2.44 9.44-1.72 7.73 1.94 15.54 3.57 23.27 5.5 3.5.77 4.71 4.74 4.81 7.9.05 8.93-1.86 18.25-7.27 25.54-4.07 5.61-10.78 8.48-17.45 9.52-9.96 2.06-20.91-.61-28.36-7.65-3.83-3.46-5.95-8.31-7.46-13.15 3.26 3.24 7.49 6.62 12.42 5.25 6.24-1.37 9.27-8.55 7.17-14.32 1.56-1.11 2.88-3.67 5.11-2.88 3.12.9 6.19 1.94 9.39 2.52-4.77 3.5-7.41 9.35-7.06 15.23.58 2.12 4.28 2.02 4.2-.36.7-4.01 1.55-8.64 5.41-10.87 3.27-2.38 7.43-1.16 11.1-1.88.82-1.21.78-2.34-.13-3.41-7.3-2.45-15.26-2.72-22.33-5.88-3.75-1.46-4.29-6.27-2.26-9.34Z"/>
    <path d="M46.27 139.24c1.76-.94 4.34-.82 5.55.94 2.85 3.56 4.84 7.74 7.89 11.15 1.86 2.2 4.87 2.45 7.38 3.46 3.25 4.28-2.31 10.39-6.94 8.28-2.97-2-5.26-4.82-7.88-7.24-2.6-2.73-5.62-5.12-7.81-8.21-1.83-2.69-1.21-6.85 1.81-8.38Z"/>
  </g>
  <path fill="#fdfdfd" d="M62.02 79.04c3.8-3.9 10.86-3.7 14.46.38 2.45 2.61 2.9 6.3 3.74 9.63 1.87 7.86 3.55 15.77 5.65 23.57 2.61-8.05 4.79-16.23 7.24-24.33.95-2.97 1.5-6.23 3.51-8.72 3.74-4.4 11.42-4.96 15.4-.56 2.55 2.55 3.41 6.41 2.55 9.88-3.07 15.16-6.17 30.31-9.24 45.47 3.57 1.58 8.16 2.32 10.07 6.19 2.36 5.08 1.66 10.94 1.12 16.34-1.56 9.93-5.91 20.36-14.81 25.84-14.71 8.6-35.51 6.79-47.13-6.22-4.97-5.26-6.68-12.47-7.65-19.41-3.02-3.68-7.49-6.8-7.86-11.98-.95-5.47 3.42-10.12 8.53-11.2-1.89-4.74-1.75-11.36 3.26-14.09 3.82-2.64 8.68-1.51 12.17 1.11-1.35-10.63-2.66-21.27-3.97-31.91-.54-3.55.33-7.43 2.96-9.99m1.51 9.77c1.58 12.42 3 24.87 4.65 37.28.24 2.63 1.65 4.89 3.28 6.89 2.44-2 5.29-3.9 8.6-3.6 6.91.53 13.48 3.05 20.3 4.16l.69-.36c3.26-13.92 5.77-28.04 8.79-42.04.56-2.77 1.52-6.1-.61-8.49-2.68-3.72-9.21-2.31-10.35 2.05-3.24 10.52-6.27 21.11-9.36 31.67-.75 2.34-1.12 4.89-2.54 6.94-1.43.62-3.22.11-3.51-1.58-3.14-12.16-5.75-24.45-8.86-36.62-.65-3.24-4.29-5.63-7.47-4.35-3.09 1.27-4.24 4.97-3.61 8.05m-12.49 38.14c-.69 4.13 2.35 7.41 4.42 10.61 2.7 3.64 4.84 7.73 7.95 11.05 2.6 2.35 6.36.94 8.42-1.4-1.37-2.21-2.36-4.65-2.3-7.3.07-2.76-2.09-4.74-3.44-6.92-2.29-3.06-4.03-6.61-6.95-9.14-2.73-2.48-7.65-.47-8.1 3.1m24.14 9.29c-2.03 3.07-1.49 7.88 2.26 9.34 7.07 3.16 15.03 3.43 22.33 5.88.91 1.07.95 2.2.13 3.41-3.67.72-7.83-.5-11.1 1.88-3.86 2.23-4.71 6.86-5.41 10.87.08 2.38-3.62 2.48-4.2.36-.35-5.88 2.29-11.73 7.06-15.23-3.2-.58-6.27-1.62-9.39-2.52-2.23-.79-3.55 1.77-5.11 2.88 2.1 5.77-.93 12.95-7.17 14.32-4.93 1.37-9.16-2.01-12.42-5.25 1.51 4.84 3.63 9.69 7.46 13.15 7.45 7.04 18.4 9.71 28.36 7.65 6.67-1.04 13.38-3.91 17.45-9.52 5.41-7.29 7.32-16.61 7.27-25.54-.1-3.16-1.31-7.13-4.81-7.9-7.73-1.93-15.54-3.56-23.27-5.5-3.12-.72-7.42-1.49-9.44 1.72m-28.91 3c-3.02 1.53-3.64 5.69-1.81 8.38 2.19 3.09 5.21 5.48 7.81 8.21 2.62 2.42 4.91 5.24 7.88 7.24 4.63 2.11 10.19-4 6.94-8.28-2.51-1.01-5.52-1.26-7.38-3.46-3.05-3.41-5.04-7.59-7.89-11.15-1.21-1.76-3.79-1.88-5.55-.94Zm95-32.91c7.98-11.82 28.78-11.09 35.33 1.86-3.06 2.5-6.56 4.35-9.85 6.52-2.4-2.4-4.98-5.44-8.76-5.08-3.89-.29-7.35 3.35-6.7 7.23.34 3.29 3.81 4.65 6.53 5.56 5.9 1.83 12.28 3.43 16.78 7.95 5.48 5.55 5.79 14.76 2.12 21.37-3.66 6.63-11.27 10.24-18.68 10.25-8.13.47-15.82-3.48-21.38-9.21 2.03-3.56 5.41-6.02 8.21-8.94 3.09 3.06 6.59 6.34 11.19 6.55 3.68.42 8-1.08 9.37-4.81 1.24-3.17.15-7.43-3.22-8.76-6.72-2.83-14.76-3.52-20-9.11-5.52-5.67-5.37-15.11-.94-21.38Zm104.26-3.7c4.55-3.23 10.3-3.92 15.73-3.84.16 3.68.17 7.37.02 11.05-3.18.51-6.75.87-9.04 3.42-3.08 3.04-2.74 7.74-2.58 11.71 3.37-2.25 7.26-3.77 11.38-3.5.13 3.71.15 7.43-.06 11.15-4.85.56-10.38 3.01-11.18 8.41-.65 6.6.3 13.27-.53 19.87-4.02.07-8.04.14-12.05-.12-.34-13.62-.11-27.25-.08-40.87-.12-6.65 2.85-13.45 8.39-17.28Zm104.5 1.54c3.97-.17 7.95-.18 11.93.01.35 4.21-.64 9.05 2.25 12.59 2.2 3.05 6.05 3.85 9.44 4.82.08 3.69.07 7.38-.03 11.07-4.17.42-8-1.45-11.44-3.57.3 5.51-1.33 11.79 2.07 16.63 2.14 3.18 6.12 3.8 9.63 4.3.19 3.63.18 7.26-.04 10.88-7.6.72-15.78-2.09-20.37-8.4-2.93-3.84-3.66-8.8-3.58-13.5 0-11.61-.34-23.23.14-34.83Zm-148.63 13.5c5-1.05 10.35-.9 15.14 1.01 9.06 3.68 15.37 13.55 14.33 23.37-.96 7.94-6.65 14.95-13.94 18.04-12.1 5.5-28.46-1.02-32.14-14.12-4.1-11.95 4.36-25.87 16.61-28.3m3.01 10.92c-3.03.78-5.73 2.86-7.11 5.68-3.19 5.84-.1 14.14 6.45 15.92 6.4 2.3 14.25-2.24 14.61-9.24 1.36-7.64-6.51-14.7-13.95-12.36Zm80.78-11.37c12.25-1.95 25.25 7.23 26.51 19.78 1.04 7.84-2.71 15.94-9.15 20.47-7.92 5.84-19.44 6.05-27.59.53-7.23-4.58-11.49-13.56-9.81-22.05 1.52-9.83 10.24-17.67 20.04-18.73m.26 11.34c-8.23 1.74-11.04 13.36-5.12 19.04 5.78 6 17.71 2.94 18.95-5.62 2.15-7.94-5.97-15.81-13.83-13.42Zm45.34-6.49c2.88-2.9 6.72-5.04 10.92-4.81 2 3.83.53 8.73.77 12.97-4.75.46-10.16 2.63-11.17 7.87-1.17 7.49.07 15.13-.61 22.67-3.99.28-7.99.2-11.98.11-.56-9.95-.06-19.95-.22-29.92.11-4.29-.39-8.61.33-12.87 3.88-.02 7.77-.11 11.64.17.08.95.24 2.85.32 3.81Zm54.54 24.32c5.2-2.66 12.21 1.75 11.67 7.67-.19 6.14-8.23 9.64-13.03 5.95-4.92-3.14-4.03-11.48 1.36-13.62Z"/>
</svg>